<svg width="3000" height="500" viewBox="0 0 3000 500" fill="none" xmlns="http://www.w3.org/2000/svg">
<g clip-path="url(#clip0_1_150)">
<path d="M250 0C388.071 0 500 111.929 500 250C500 388.071 388.071 500 250 500C111.929 500 0 388.071 0 250C0 111.929 111.929 0 250 0ZM750 0C888.071 0 1000 111.929 1000 250C1000 388.071 888.071 500 750 500C611.929 500 500 388.071 500 250C500 111.929 611.929 0 750 0ZM1250 0C1388.07 0 1500 111.929 1500 250C1500 388.071 1388.07 500 1250 500C1111.93 500 1000 388.071 1000 250C1000 111.929 1111.93 0 1250 0ZM1750 0C1888.07 0 2000 111.929 2000 250C2000 388.071 1888.07 500 1750 500C1611.93 500 1500 388.071 1500 250C1500 111.929 1611.93 0 1750 0ZM2250 0C2388.07 0 2500 111.929 2500 250C2500 388.071 2388.07 500 2250 500C2111.93 500 2000 388.071 2000 250C2000 111.929 2111.93 0 2250 0ZM2750 0C2888.07 0 3000 111.929 3000 250C3000 388.071 2888.07 500 2750 500C2611.93 500 2500 388.071 2500 250C2500 111.929 2611.93 0 2750 0ZM1256.22 104.62C1215.52 104.62 1182.79 118.18 1158.04 145.302C1133.3 172.423 1120.92 208.459 1120.92 253.41C1120.92 297.859 1133.17 332.891 1157.67 358.506C1181.16 383.995 1211.31 396.739 1248.12 396.739C1270.48 396.739 1289.32 392.03 1304.65 382.613C1313.56 377.214 1323.61 367.922 1334.79 354.738L1340.64 389.394H1379.08V240.415H1263.38V286.747H1327.63C1324.74 304.953 1317.08 319.707 1304.65 331.008C1292.21 342.183 1276.25 347.771 1256.78 347.771C1236.94 347.77 1219.22 340.676 1203.65 326.487C1188.07 312.299 1180.28 288.128 1180.28 253.976C1180.28 220.074 1187.44 194.71 1201.76 177.885C1216.21 160.934 1234.61 152.459 1256.97 152.459C1268.65 152.459 1279.27 154.53 1288.82 158.674C1305.9 166.208 1316.64 179.454 1321.04 198.414H1378.13C1374.99 171.67 1362.68 149.382 1341.2 131.553C1319.85 113.597 1291.52 104.62 1256.22 104.62ZM2250.09 103.261C2210.39 103.261 2180.05 114.047 2159.06 135.618C2130.92 161.078 2116.85 199.206 2116.85 250C2116.85 299.791 2130.92 337.918 2159.06 364.381C2180.05 385.953 2210.39 396.739 2250.09 396.739C2289.8 396.739 2320.14 385.953 2341.12 364.381C2369.14 337.918 2383.15 299.791 2383.15 250C2383.15 199.206 2369.14 161.078 2341.12 135.618C2320.14 114.046 2289.8 103.261 2250.09 103.261ZM1645.38 111.413V389.945H1855.98V339.87H1702.13V268.253H1837.12V219.878H1702.13V160.732H1849.19V111.413H1645.38ZM144.021 111.413V388.587H201.521V288.925H260.335C291.026 288.925 314.639 282.155 331.175 268.616C347.71 255.077 355.978 231.948 355.978 199.229C355.978 169.267 347.71 147.141 331.175 132.85C314.639 118.558 292.466 111.413 264.656 111.413H144.021ZM721.469 112.772V388.587H779.893V112.772H721.469ZM2638.59 111.413V388.587H2692.34V191.707L2805.09 388.587H2862.77V111.413H2809.02V304.908L2699.08 111.413H2638.59ZM2250.09 152.362C2273.09 152.362 2291.31 160.89 2304.75 177.947C2318.32 194.879 2325.1 218.896 2325.1 250C2325.1 281.229 2318.38 305.309 2304.94 322.24C2291.37 339.172 2273.09 347.638 2250.09 347.638C2227.1 347.638 2208.76 339.172 2195.06 322.24C2181.37 305.309 2174.52 281.229 2174.52 250C2174.52 218.771 2181.37 194.69 2195.06 177.759C2208.76 160.828 2227.1 152.362 2250.09 152.362ZM255.449 159.552C269.104 159.552 279.689 162.623 287.205 168.766C294.846 174.908 298.667 185.188 298.667 199.604C298.667 214.021 294.909 224.552 287.393 231.196C279.751 237.84 269.103 241.162 255.449 241.162H201.521V159.552H255.449Z" fill="#E87A2F"/>
</g>
<defs>
<clipPath id="clip0_1_150">
<rect width="3000" height="500" fill="white"/>
</clipPath>
</defs>
</svg>
