<svg width="500" height="500" viewBox="0 0 500 500" fill="none" xmlns="http://www.w3.org/2000/svg">
<g clip-path="url(#clip0_1_320)">
<path d="M250 0C388.071 0 500 111.929 500 250C500 388.071 388.071 500 250 500C111.929 500 0 388.071 0 250C0 111.929 111.929 0 250 0ZM144 112V388H201.511V288.76H260.337C291.034 288.76 314.652 282.019 331.191 268.537C347.73 255.055 356 232.024 356 199.443C356 169.609 347.73 147.576 331.191 133.346C314.652 119.115 292.475 112 264.659 112H144ZM255.45 159.935C269.107 159.935 279.695 162.994 287.213 169.11C294.856 175.227 298.678 185.463 298.678 199.818C298.678 214.174 294.918 224.659 287.4 231.275C279.757 237.891 269.107 241.199 255.45 241.199H201.511V159.935H255.45Z" fill="#7A6A9E"/>
</g>
<defs>
<clipPath id="clip0_1_320">
<rect width="500" height="500" fill="white"/>
</clipPath>
</defs>
</svg>
