<svg width="500" height="500" viewBox="0 0 500 500" fill="none" xmlns="http://www.w3.org/2000/svg">
<g clip-path="url(#clip0_1_324)">
<circle cx="250" cy="250" r="250" fill="#0F1113"/>
<path d="M260.337 288.76H201.511V388H144V112H264.66C292.475 112 314.652 119.115 331.191 133.346C347.73 147.577 356 169.609 356 199.444C356 232.024 347.73 255.056 331.191 268.537C314.652 282.019 291.034 288.76 260.337 288.76ZM287.401 231.275C294.918 224.659 298.677 214.174 298.677 199.818C298.677 185.463 294.856 175.227 287.213 169.11C279.695 162.993 269.108 159.935 255.45 159.935H201.511V241.199H255.45C269.108 241.199 279.758 237.891 287.401 231.275Z" fill="white"/>
</g>
<defs>
<clipPath id="clip0_1_324">
<rect width="500" height="500" fill="white"/>
</clipPath>
</defs>
</svg>
