<svg width="3000" height="500" viewBox="0 0 3000 500" fill="none" xmlns="http://www.w3.org/2000/svg">
<g clip-path="url(#clip0_1_264)">
<circle cx="250" cy="250" r="250" fill="white"/>
<circle cx="750" cy="250" r="250" fill="white"/>
<circle cx="1250" cy="250" r="250" fill="white"/>
<circle cx="1750" cy="250" r="250" fill="white"/>
<circle cx="2250" cy="250" r="250" fill="white"/>
<circle cx="2750" cy="250" r="250" fill="white"/>
<path d="M260.335 288.925H201.52V388.587H144.021V111.413H264.656C292.466 111.413 314.639 118.559 331.175 132.85C347.71 147.141 355.978 169.267 355.978 199.229C355.978 231.948 347.71 255.077 331.175 268.616C314.639 282.155 291.026 288.925 260.335 288.925ZM287.393 231.196C294.909 224.552 298.667 214.021 298.667 199.605C298.667 185.188 294.846 174.909 287.205 168.766C279.689 162.623 269.103 159.552 255.449 159.552H201.52V241.162H255.449C269.103 241.162 279.751 237.84 287.393 231.196Z" fill="black"/>
<path d="M1304.65 382.613C1289.32 392.031 1270.48 396.739 1248.12 396.739C1211.31 396.739 1181.16 383.995 1157.67 358.506C1133.17 332.891 1120.92 297.859 1120.92 253.41C1120.92 208.459 1133.3 172.423 1158.04 145.302C1182.79 118.18 1215.52 104.62 1256.22 104.62C1291.52 104.62 1319.85 113.597 1341.2 131.553C1362.68 149.382 1374.99 171.67 1378.13 198.414H1321.04C1316.64 179.454 1305.9 166.208 1288.82 158.674C1279.27 154.53 1268.65 152.459 1256.97 152.459C1234.61 152.459 1216.21 160.934 1201.76 177.885C1187.44 194.71 1180.28 220.074 1180.28 253.975C1180.28 288.128 1188.07 312.299 1203.65 326.487C1219.22 340.676 1236.94 347.77 1256.78 347.77C1276.25 347.77 1292.21 342.183 1304.65 331.008C1317.08 319.707 1324.74 304.954 1327.63 286.747H1263.38V240.415H1379.08V389.394H1340.64L1334.79 354.739C1323.61 367.923 1313.56 377.214 1304.65 382.613Z" fill="black"/>
<path d="M1837.12 268.253H1702.13V339.87H1855.98V389.946H1645.38V111.413H1849.19V160.733H1702.13V219.878H1837.12V268.253Z" fill="black"/>
<path d="M2862.77 388.587H2805.09L2692.34 191.707V388.587H2638.59V111.413H2699.08L2809.02 304.908V111.413H2862.77V388.587Z" fill="black"/>
<path d="M721.468 112.772H779.892V388.587H721.468V112.772Z" fill="black"/>
<path d="M2250.09 396.739C2210.39 396.739 2180.05 385.953 2159.06 364.381C2130.92 337.918 2116.85 299.791 2116.85 250C2116.85 199.206 2130.92 161.078 2159.06 135.619C2180.05 114.047 2210.39 103.261 2250.09 103.261C2289.8 103.261 2320.14 114.047 2341.12 135.619C2369.14 161.078 2383.15 199.206 2383.15 250C2383.15 299.791 2369.14 337.918 2341.12 364.381C2320.14 385.953 2289.8 396.739 2250.09 396.739ZM2304.94 322.241C2318.38 305.309 2325.1 281.229 2325.1 250C2325.1 218.896 2318.32 194.879 2304.75 177.947C2291.31 160.89 2273.09 152.362 2250.09 152.362C2227.1 152.362 2208.76 160.828 2195.06 177.759C2181.37 194.69 2174.52 218.771 2174.52 250C2174.52 281.229 2181.37 305.309 2195.06 322.241C2208.76 339.172 2227.1 347.638 2250.09 347.638C2273.09 347.638 2291.37 339.172 2304.94 322.241Z" fill="black"/>
</g>
<defs>
<clipPath id="clip0_1_264">
<rect width="3000" height="500" fill="white"/>
</clipPath>
</defs>
</svg>
